<svg width="48" height="49" viewBox="0 0 48 49" fill="none" xmlns="http://www.w3.org/2000/svg">
<path d="M24 0.244629C10.7453 0.244629 0 11.0695 0 24.4224C0 35.7608 7.74912 45.2753 18.2026 47.8884V31.8111H13.2538V24.4224H18.2026V21.2387C18.2026 13.0095 21.8995 9.19524 29.9194 9.19524C31.44 9.19524 34.0637 9.49601 35.137 9.79582V16.4931C34.5706 16.4331 33.5866 16.4031 32.3645 16.4031C28.4294 16.4031 26.9088 17.905 26.9088 21.8093V24.4224H34.7482L33.4013 31.8111H26.9088V48.4232C38.7926 46.9774 48.001 36.784 48.001 24.4224C48 11.0695 37.2547 0.244629 24 0.244629Z" fill="white"/>
</svg>
